<mxfile host="app.diagrams.net" modified="2022-12-07T12:20:49.278Z" agent="5.0 (Macintosh)" etag="bewQRG4sYjW2HuyK8Dd3" version="20.6.0" type="github">
  <diagram id="OjLrFwN9OP8reqLILfgG" name="Page-1">
    <mxGraphModel dx="1310" dy="690" grid="0" gridSize="10" guides="1" tooltips="1" connect="1" arrows="1" fold="1" page="1" pageScale="1" pageWidth="1227" pageHeight="569" math="0" shadow="0">
      <root>
        <mxCell id="0" />
        <mxCell id="1" parent="0" />
        <mxCell id="kw9qHA8cg3V7aFTEH7Zn-1" value="" style="rounded=0;whiteSpace=wrap;html=1;fontSize=14;" parent="1" vertex="1">
          <mxGeometry x="527" y="27" width="140" height="50" as="geometry" />
        </mxCell>
        <mxCell id="kw9qHA8cg3V7aFTEH7Zn-5" value="Homepage" style="text;html=1;strokeColor=none;fillColor=none;align=center;verticalAlign=middle;whiteSpace=wrap;rounded=0;fontSize=14;" parent="1" vertex="1">
          <mxGeometry x="567" y="35" width="52" height="32" as="geometry" />
        </mxCell>
        <mxCell id="kw9qHA8cg3V7aFTEH7Zn-8" value="" style="group;fontSize=14;" parent="1" vertex="1" connectable="0">
          <mxGeometry x="723" y="117" width="140" height="50" as="geometry" />
        </mxCell>
        <mxCell id="JC-Is911rWszgPMz9VhU-4" value="" style="group;fontSize=14;" vertex="1" connectable="0" parent="kw9qHA8cg3V7aFTEH7Zn-8">
          <mxGeometry x="-196" width="140" height="50" as="geometry" />
        </mxCell>
        <mxCell id="kw9qHA8cg3V7aFTEH7Zn-4" value="" style="rounded=0;whiteSpace=wrap;html=1;fontSize=14;" parent="JC-Is911rWszgPMz9VhU-4" vertex="1">
          <mxGeometry width="140" height="50" as="geometry" />
        </mxCell>
        <mxCell id="kw9qHA8cg3V7aFTEH7Zn-6" value="My Bookings" style="text;html=1;strokeColor=none;fillColor=none;align=center;verticalAlign=middle;whiteSpace=wrap;rounded=0;fontSize=14;" parent="JC-Is911rWszgPMz9VhU-4" vertex="1">
          <mxGeometry x="30" y="10" width="80" height="30" as="geometry" />
        </mxCell>
        <mxCell id="kw9qHA8cg3V7aFTEH7Zn-15" value="" style="endArrow=classic;html=1;rounded=0;entryX=0.929;entryY=0;entryDx=0;entryDy=0;entryPerimeter=0;fontSize=14;" parent="1" target="kw9qHA8cg3V7aFTEH7Zn-2" edge="1">
          <mxGeometry width="50" height="50" relative="1" as="geometry">
            <mxPoint x="527" y="57" as="sourcePoint" />
            <mxPoint x="477" y="97" as="targetPoint" />
          </mxGeometry>
        </mxCell>
        <mxCell id="kw9qHA8cg3V7aFTEH7Zn-16" value="" style="endArrow=classic;html=1;rounded=0;exitX=1;exitY=0.5;exitDx=0;exitDy=0;fontSize=14;" parent="1" source="kw9qHA8cg3V7aFTEH7Zn-1" edge="1">
          <mxGeometry width="50" height="50" relative="1" as="geometry">
            <mxPoint x="673" y="47" as="sourcePoint" />
            <mxPoint x="813" y="127" as="targetPoint" />
          </mxGeometry>
        </mxCell>
        <mxCell id="kw9qHA8cg3V7aFTEH7Zn-18" value="" style="endArrow=classic;html=1;rounded=0;entryX=0.807;entryY=-0.02;entryDx=0;entryDy=0;entryPerimeter=0;fontSize=14;" parent="1" edge="1" target="kw9qHA8cg3V7aFTEH7Zn-3">
          <mxGeometry width="50" height="50" relative="1" as="geometry">
            <mxPoint x="567" y="167" as="sourcePoint" />
            <mxPoint x="517" y="217" as="targetPoint" />
          </mxGeometry>
        </mxCell>
        <mxCell id="kw9qHA8cg3V7aFTEH7Zn-19" value="" style="endArrow=classic;html=1;rounded=0;entryX=0.443;entryY=-0.022;entryDx=0;entryDy=0;entryPerimeter=0;exitX=0.829;exitY=1.017;exitDx=0;exitDy=0;exitPerimeter=0;fontSize=14;" parent="1" target="kw9qHA8cg3V7aFTEH7Zn-10" edge="1" source="kw9qHA8cg3V7aFTEH7Zn-4">
          <mxGeometry width="50" height="50" relative="1" as="geometry">
            <mxPoint x="853" y="166.9999999999999" as="sourcePoint" />
            <mxPoint x="803" y="216.9999999999999" as="targetPoint" />
          </mxGeometry>
        </mxCell>
        <mxCell id="JC-Is911rWszgPMz9VhU-3" value="" style="group;fontSize=14;" vertex="1" connectable="0" parent="1">
          <mxGeometry x="203" y="117" width="140" height="130" as="geometry" />
        </mxCell>
        <mxCell id="kw9qHA8cg3V7aFTEH7Zn-9" value="" style="group;fontSize=14;" parent="JC-Is911rWszgPMz9VhU-3" vertex="1" connectable="0">
          <mxGeometry width="140" height="50" as="geometry" />
        </mxCell>
        <mxCell id="JC-Is911rWszgPMz9VhU-1" value="" style="group;fontSize=14;" vertex="1" connectable="0" parent="kw9qHA8cg3V7aFTEH7Zn-9">
          <mxGeometry width="140" height="50" as="geometry" />
        </mxCell>
        <mxCell id="kw9qHA8cg3V7aFTEH7Zn-2" value="" style="rounded=0;whiteSpace=wrap;html=1;fontSize=14;" parent="JC-Is911rWszgPMz9VhU-1" vertex="1">
          <mxGeometry width="140" height="50" as="geometry" />
        </mxCell>
        <mxCell id="kw9qHA8cg3V7aFTEH7Zn-7" value="Create Booking" style="text;html=1;strokeColor=none;fillColor=none;align=center;verticalAlign=middle;whiteSpace=wrap;rounded=0;fontSize=14;" parent="JC-Is911rWszgPMz9VhU-1" vertex="1">
          <mxGeometry x="25" y="10" width="90" height="30" as="geometry" />
        </mxCell>
        <mxCell id="kw9qHA8cg3V7aFTEH7Zn-29" value="" style="endArrow=classic;html=1;rounded=0;fontSize=14;" parent="JC-Is911rWszgPMz9VhU-3" edge="1">
          <mxGeometry width="50" height="50" relative="1" as="geometry">
            <mxPoint x="10" y="50" as="sourcePoint" />
            <mxPoint x="30" y="110" as="targetPoint" />
            <Array as="points">
              <mxPoint x="10" y="80" />
              <mxPoint x="10" y="110" />
            </Array>
          </mxGeometry>
        </mxCell>
        <mxCell id="JC-Is911rWszgPMz9VhU-2" value="" style="group;fontSize=14;" vertex="1" connectable="0" parent="JC-Is911rWszgPMz9VhU-3">
          <mxGeometry x="30" y="90" width="110" height="40" as="geometry" />
        </mxCell>
        <mxCell id="kw9qHA8cg3V7aFTEH7Zn-30" value="" style="rounded=0;whiteSpace=wrap;html=1;fontSize=14;" parent="JC-Is911rWszgPMz9VhU-2" vertex="1">
          <mxGeometry width="110" height="40" as="geometry" />
        </mxCell>
        <mxCell id="kw9qHA8cg3V7aFTEH7Zn-32" value="&amp;nbsp;Booking Form" style="text;html=1;strokeColor=none;fillColor=none;align=center;verticalAlign=middle;whiteSpace=wrap;rounded=0;fontSize=14;" parent="JC-Is911rWszgPMz9VhU-2" vertex="1">
          <mxGeometry x="15" y="5" width="80" height="30" as="geometry" />
        </mxCell>
        <mxCell id="JC-Is911rWszgPMz9VhU-6" value="" style="group;fontSize=14;" vertex="1" connectable="0" parent="1">
          <mxGeometry x="413" y="207" width="140" height="130" as="geometry" />
        </mxCell>
        <mxCell id="kw9qHA8cg3V7aFTEH7Zn-26" value="Edit Form" style="text;html=1;strokeColor=none;fillColor=none;align=center;verticalAlign=middle;whiteSpace=wrap;rounded=0;fontSize=14;" parent="JC-Is911rWszgPMz9VhU-6" vertex="1">
          <mxGeometry x="50" y="90" width="90" height="40" as="geometry" />
        </mxCell>
        <mxCell id="JC-Is911rWszgPMz9VhU-5" value="" style="group;fontSize=14;" vertex="1" connectable="0" parent="JC-Is911rWszgPMz9VhU-6">
          <mxGeometry width="140" height="130" as="geometry" />
        </mxCell>
        <mxCell id="JC-Is911rWszgPMz9VhU-7" value="" style="group;fontSize=14;" vertex="1" connectable="0" parent="JC-Is911rWszgPMz9VhU-5">
          <mxGeometry width="140" height="130" as="geometry" />
        </mxCell>
        <mxCell id="kw9qHA8cg3V7aFTEH7Zn-28" value="" style="rounded=0;whiteSpace=wrap;html=1;fillColor=none;fontSize=14;" parent="JC-Is911rWszgPMz9VhU-7" vertex="1">
          <mxGeometry x="50" y="90" width="90" height="40" as="geometry" />
        </mxCell>
        <mxCell id="kw9qHA8cg3V7aFTEH7Zn-3" value="" style="rounded=0;whiteSpace=wrap;html=1;fontSize=14;" parent="JC-Is911rWszgPMz9VhU-7" vertex="1">
          <mxGeometry width="140" height="50" as="geometry" />
        </mxCell>
        <mxCell id="kw9qHA8cg3V7aFTEH7Zn-11" value="Edit Booking" style="text;html=1;strokeColor=none;fillColor=none;align=center;verticalAlign=middle;whiteSpace=wrap;rounded=0;fontSize=14;" parent="JC-Is911rWszgPMz9VhU-7" vertex="1">
          <mxGeometry x="27" y="10" width="86" height="30" as="geometry" />
        </mxCell>
        <mxCell id="kw9qHA8cg3V7aFTEH7Zn-25" value="" style="endArrow=classic;html=1;rounded=0;fontSize=14;" parent="JC-Is911rWszgPMz9VhU-7" edge="1">
          <mxGeometry width="50" height="50" relative="1" as="geometry">
            <mxPoint x="10" y="50" as="sourcePoint" />
            <mxPoint x="50" y="110" as="targetPoint" />
            <Array as="points">
              <mxPoint x="10" y="80" />
              <mxPoint x="10" y="110" />
            </Array>
          </mxGeometry>
        </mxCell>
        <mxCell id="JC-Is911rWszgPMz9VhU-8" value="" style="group;fontSize=14;" vertex="1" connectable="0" parent="1">
          <mxGeometry x="593" y="207" width="140" height="50" as="geometry" />
        </mxCell>
        <mxCell id="kw9qHA8cg3V7aFTEH7Zn-10" value="" style="rounded=0;whiteSpace=wrap;html=1;fontSize=14;" parent="JC-Is911rWszgPMz9VhU-8" vertex="1">
          <mxGeometry width="140" height="50" as="geometry" />
        </mxCell>
        <mxCell id="kw9qHA8cg3V7aFTEH7Zn-12" value="Delete Booking" style="text;html=1;strokeColor=none;fillColor=none;align=center;verticalAlign=middle;whiteSpace=wrap;rounded=0;fontSize=14;" parent="JC-Is911rWszgPMz9VhU-8" vertex="1">
          <mxGeometry x="23" y="10" width="94" height="30" as="geometry" />
        </mxCell>
        <mxCell id="JC-Is911rWszgPMz9VhU-9" value="" style="rounded=0;whiteSpace=wrap;html=1;fillColor=none;fontSize=14;" vertex="1" parent="1">
          <mxGeometry x="813" y="127" width="150" height="50" as="geometry" />
        </mxCell>
        <mxCell id="JC-Is911rWszgPMz9VhU-10" value="Studios" style="text;html=1;strokeColor=none;fillColor=none;align=center;verticalAlign=middle;whiteSpace=wrap;rounded=0;fontSize=14;" vertex="1" parent="1">
          <mxGeometry x="858" y="137" width="60" height="30" as="geometry" />
        </mxCell>
        <mxCell id="JC-Is911rWszgPMz9VhU-11" value="" style="endArrow=classic;html=1;rounded=0;entryX=0.5;entryY=0;entryDx=0;entryDy=0;fontSize=14;" edge="1" parent="1" target="JC-Is911rWszgPMz9VhU-15">
          <mxGeometry width="50" height="50" relative="1" as="geometry">
            <mxPoint x="887.41" y="177" as="sourcePoint" />
            <mxPoint x="873" y="317" as="targetPoint" />
          </mxGeometry>
        </mxCell>
        <mxCell id="JC-Is911rWszgPMz9VhU-12" value="" style="endArrow=classic;html=1;rounded=0;fontSize=14;" edge="1" parent="1">
          <mxGeometry width="50" height="50" relative="1" as="geometry">
            <mxPoint x="843.4099999999999" y="176.9999999999999" as="sourcePoint" />
            <mxPoint x="793" y="287" as="targetPoint" />
          </mxGeometry>
        </mxCell>
        <mxCell id="JC-Is911rWszgPMz9VhU-13" value="" style="endArrow=classic;html=1;rounded=0;entryX=0.5;entryY=0;entryDx=0;entryDy=0;fontSize=14;" edge="1" parent="1" target="JC-Is911rWszgPMz9VhU-16">
          <mxGeometry width="50" height="50" relative="1" as="geometry">
            <mxPoint x="933.4099999999999" y="176.9999999999999" as="sourcePoint" />
            <mxPoint x="932.9999999999998" y="256.9999999999999" as="targetPoint" />
          </mxGeometry>
        </mxCell>
        <mxCell id="JC-Is911rWszgPMz9VhU-14" value="" style="rounded=0;whiteSpace=wrap;html=1;fillColor=none;fontSize=14;" vertex="1" parent="1">
          <mxGeometry x="743" y="287" width="90" height="40" as="geometry" />
        </mxCell>
        <mxCell id="JC-Is911rWszgPMz9VhU-15" value="" style="rounded=0;whiteSpace=wrap;html=1;fillColor=none;fontSize=14;" vertex="1" parent="1">
          <mxGeometry x="828" y="337" width="90" height="40" as="geometry" />
        </mxCell>
        <mxCell id="JC-Is911rWszgPMz9VhU-16" value="" style="rounded=0;whiteSpace=wrap;html=1;fillColor=none;fontSize=14;" vertex="1" parent="1">
          <mxGeometry x="903" y="257" width="90" height="40" as="geometry" />
        </mxCell>
        <mxCell id="JC-Is911rWszgPMz9VhU-17" value="Studio 1 Bookings" style="text;html=1;strokeColor=none;fillColor=none;align=center;verticalAlign=middle;whiteSpace=wrap;rounded=0;fontSize=14;" vertex="1" parent="1">
          <mxGeometry x="753" y="287" width="70" height="40" as="geometry" />
        </mxCell>
        <mxCell id="JC-Is911rWszgPMz9VhU-18" value="Studio 2 Bookings" style="text;html=1;strokeColor=none;fillColor=none;align=center;verticalAlign=middle;whiteSpace=wrap;rounded=0;fontSize=14;" vertex="1" parent="1">
          <mxGeometry x="838" y="337" width="70" height="40" as="geometry" />
        </mxCell>
        <mxCell id="JC-Is911rWszgPMz9VhU-19" value="Studio 3 Bookings" style="text;html=1;strokeColor=none;fillColor=none;align=center;verticalAlign=middle;whiteSpace=wrap;rounded=0;fontSize=14;" vertex="1" parent="1">
          <mxGeometry x="913" y="257" width="70" height="40" as="geometry" />
        </mxCell>
      </root>
    </mxGraphModel>
  </diagram>
</mxfile>
